<svg xmlns="http://www.w3.org/2000/svg" width="800" height="300" viewBox="0 0 800 300">
  <defs>
    <linearGradient id="bg" x1="0" y1="0" x2="1" y2="1">
      <stop offset="0%" stop-color="#0f1d2e"/>
      <stop offset="100%" stop-color="#1a344a"/>
    </linearGradient>
    <linearGradient id="docGrad" x1="0" y1="0" x2="0" y2="1">
      <stop offset="0%" stop-color="#ffffff"/>
      <stop offset="100%" stop-color="#f0f4f8"/>
    </linearGradient>
    <marker id="arrow" markerWidth="10" markerHeight="8" refX="9" refY="4" orient="auto">
      <polygon points="0,0 10,4 0,8" fill="#0e7c66"/>
    </marker>
  </defs>

  <rect width="800" height="300" fill="url(#bg)" rx="14"/>
  <circle cx="680" cy="60" r="90" fill="#0e7c66" opacity="0.15"/>
  <circle cx="700" cy="240" r="120" fill="#0e7c66" opacity="0.08"/>
  <circle cx="100" cy="270" r="60" fill="#e8a33d" opacity="0.1"/>

  <!-- Document -->
  <g transform="translate(70, 40)">
    <rect x="0" y="0" width="140" height="180" rx="10" fill="url(#docGrad)" stroke="#dde4ea" stroke-width="1.5"/>
    <rect x="20" y="25" width="100" height="6" rx="3" fill="#dde4ea"/>
    <rect x="20" y="42" width="80" height="6" rx="3" fill="#e8ecf0"/>
    <rect x="20" y="59" width="90" height="6" rx="3" fill="#e8ecf0"/>
    <rect x="20" y="76" width="70" height="6" rx="3" fill="#e8ecf0"/>
    <rect x="20" y="93" width="85" height="6" rx="3" fill="#e8ecf0"/>
    <rect x="20" y="115" width="65" height="22" rx="5" fill="#e2f1ed" stroke="#0e7c66" stroke-width="1.5"/>
    <text x="33" y="131" font-family="monospace" font-size="10" fill="#0e7c66" font-weight="bold">Agreement DATE</text>
    <rect x="20" y="145" width="72" height="22" rx="5" fill="#e2f1ed" stroke="#0e7c66" stroke-width="1.5"/>
    <text x="33" y="161" font-family="monospace" font-size="10" fill="#0e7c66" font-weight="bold">Employer name</text>
    <path d="M145,90 L195,90" stroke="#0e7c66" stroke-width="2.5" marker-end="url(#arrow)" opacity="0.8"/>
  </g>

  <!-- AI Sparkle -->
  <text x="650" y="65" font-size="28" fill="#e8a33d" text-anchor="middle">✦</text>

  <!-- Editor preview -->
  <g transform="translate(210, 40)">
    <rect x="0" y="0" width="510" height="170" rx="10" fill="#1a2d3f" stroke="#22344a" stroke-width="1"/>
    <rect x="0" y="0" width="510" height="32" rx="10" fill="#162535"/>
    <rect x="0" y="22" width="510" height="10" fill="#162535"/>
    <circle cx="18" cy="16" r="5" fill="#ef4444"/>
    <circle cx="34" cy="16" r="5" fill="#e8a33d"/>
    <circle cx="50" cy="16" r="5" fill="#22c55e"/>
    <text x="24" y="56" font-family="sans-serif" font-size="11" fill="#8b9db0" font-weight="bold">Limited Term Contract of Employment</text>
    <text x="24" y="78" font-family="sans-serif" font-size="10" fill="#5b6b7c">The agreement was made on</text>
    <rect x="208" y="66" width="65" height="18" rx="4" fill="#1a1a2e" stroke="#0e7c66" stroke-width="1"/>
    <text x="215" y="79" font-family="monospace" font-size="9" fill="#0e7c66">📅 DATE</text>
    <text x="285" y="78" font-family="sans-serif" font-size="10" fill="#5b6b7c">between:</text>
    <text x="24" y="100" font-family="sans-serif" font-size="10" fill="#5b6b7c">(1)</text>
    <rect x="44" y="88" width="72" height="18" rx="4" fill="#1a1a2e" stroke="#0e7c66" stroke-width="1"/>
    <text x="52" y="101" font-family="monospace" font-size="9" fill="#0e7c66">Employer name</text>
    <text x="24" y="122" font-family="sans-serif" font-size="10" fill="#5b6b7c">(2)</text>
    <rect x="44" y="110" width="78" height="18" rx="4" fill="#1a1a2e" stroke="#0e7c66" stroke-width="1"/>
    <text x="52" y="123" font-family="monospace" font-size="9" fill="#0e7c66">Candidate name</text>
    <!-- AI badge -->
    <rect x="380" y="130" width="100" height="24" rx="12" fill="#0e7c66" opacity="0.95"/>
    <text x="408" y="147" font-family="sans-serif" font-size="11" fill="#fff" font-weight="bold">✦ AI-powered</text>
  </g>

  <text x="400" y="278" font-family="sans-serif" font-size="12" fill="#5b6b7c" text-anchor="middle" letter-spacing="3" font-weight="bold">AI CONTRACT TEMPLATE GENERATOR</text>
</svg>